<svg id="Capa_1" enable-background="new 0 0 512.109 512.109" height="512" viewBox="0 0 512.109 512.109" width="512" xmlns="http://www.w3.org/2000/svg"><g><g><g><path d="m467.311 111.411c-3.126-4.554-9.35-5.71-13.904-2.586-4.554 3.126-5.711 9.351-2.586 13.904 64.215 93.553 52.479 219.784-27.902 300.15-61.544 61.531-150.988 83.786-233.288 59.633l51.11-21.653c18.471-7.783 33.61-21.023 43.783-38.291 10.174-17.268 14.416-36.927 12.271-56.853-1.117-10.379-3.91-20.265-8.15-29.369h21.902c5.522 0 10-4.478 10-10s-4.478-10-10-10h-34.606c-8.454-10.118-19.137-18.468-31.582-24.353-26.958-12.743-57.608-11.815-83.459 2.191-7.683-6.688-17.405-10.925-27.697-11.911-13.434-1.289-26.481 2.857-36.738 11.678l-59.119 50.913c-35.374-87.194-15.212-188.656 51.817-255.673 80.303-80.286 206.478-92.074 300.02-28.028 4.556 3.118 10.779 1.956 13.9-2.602 3.12-4.557 1.955-10.78-2.602-13.9-101.48-69.482-238.355-56.702-325.46 30.387-37.776 37.769-62.451 85.474-71.358 137.958-8.467 49.896-2.191 100.433 18.137 146.447-1.383 1.854-2.573 3.805-3.541 5.853-5.018 10.615-4.636 23.095 1.02 33.383l46.583 84.745c9.488 17.262 27.63 27.353 46.455 27.352 6.271 0 12.619-1.12 18.747-3.468.108-.041.216-.085.323-.13l30.705-13.009c30.548 12.035 62.399 17.904 93.983 17.902 66.608-.004 131.963-26.047 180.985-75.06 87.194-87.176 99.916-224.115 30.251-325.61zm-343.556 377.289c-15.206 5.739-32.533-.648-40.367-14.899l-46.583-84.746c-2.576-4.685-2.749-10.367-.464-15.201.914-1.934 2.352-3.753 4.274-5.408l68.896-59.334c5.356-4.607 11.994-7.064 18.941-7.064.942 0 1.89.045 2.841.136 5.07.486 9.897 2.298 13.994 5.155l-47.654 51.57c-3.749 4.057-3.499 10.384.558 14.132 1.923 1.777 4.357 2.655 6.784 2.655 2.692 0 5.376-1.08 7.347-3.213l53.702-58.115c18.268-11.574 40.181-14.35 60.435-7.954l-61.514 33.8c-4.84 2.659-6.608 8.739-3.949 13.579 1.82 3.313 5.242 5.187 8.773 5.187 1.628 0 3.279-.398 4.807-1.238l73.462-40.365c5.7 4.202 10.693 9.173 14.87 14.747l-78.655 43.219c-4.84 2.659-6.608 8.739-3.948 13.579 1.82 3.313 5.242 5.187 8.773 5.187 1.628 0 3.28-.398 4.807-1.238l78.669-43.228c2.192 5.766 3.67 11.875 4.353 18.216.079.736.135 1.471.193 2.205l-73.537 40.407c-4.84 2.659-6.608 8.739-3.949 13.579 1.82 3.313 5.242 5.187 8.773 5.187 1.628 0 3.279-.398 4.807-1.238l61.834-33.976c-5.527 21.357-20.669 39.398-42.073 48.417z"/><path d="m420.171 88.242c1.64 4.004 5.866 6.551 10.176 6.135 4.12-.398 7.636-3.374 8.714-7.369 1.073-3.978-.497-8.367-3.871-10.738-3.26-2.291-7.67-2.445-11.062-.344-4.102 2.542-5.814 7.863-3.957 12.316z"/><path d="m301.828 189.304v19.025c0 19.6 15.948 35.546 35.551 35.546 19.604 0 35.552-15.946 35.552-35.546v-19.025c0-19.6-15.948-35.546-35.552-35.546-19.603.001-35.551 15.947-35.551 35.546zm51.102 0v19.025c0 8.572-6.977 15.546-15.552 15.546s-15.551-6.974-15.551-15.546v-19.025c0-8.572 6.976-15.546 15.551-15.546s15.552 6.974 15.552 15.546z"/><path d="m139.151 189.304v19.025c0 19.6 15.948 35.546 35.551 35.546s35.551-15.946 35.551-35.546v-19.025c0-19.6-15.948-35.546-35.551-35.546s-35.551 15.947-35.551 35.546zm51.103 0v19.025c0 8.572-6.976 15.546-15.551 15.546s-15.551-6.974-15.551-15.546v-19.025c0-8.572 6.976-15.546 15.551-15.546s15.551 6.974 15.551 15.546z"/></g></g></g></svg>